<svg id="Capa_1" data-name="Capa 1" xmlns="http://www.w3.org/2000/svg" width="100mm" height="87.6mm" viewBox="0 0 283.5 248.4">
  <title>logo-utc-v01</title>
  <g>
    <path d="M14.7,229h2.5c0,5.1.1,10.1-.1,15.1-.1,2.6-2.1,3.9-5,4.1s-5.6-.8-6.4-3.4a5.1,5.1,0,0,1-.3-1.7c-.1-4.6-.1-9.3-.1-14H8v8.1c0,2.2,0,4.4.1,6.5s1.1,3,3.1,3,3.2-.7,3.3-2.8c.2-4.1.2-8.2.2-12.3A22.5,22.5,0,0,0,14.7,229Z" style="fill: #011f5d"/>
    <path d="M31.5,247.8H29.1v-5.6a16.1,16.1,0,0,0,0-3.1c-.3-.9-1-1.7-1.4-2.6-.9.6-2.2,1-2.6,1.8a12.4,12.4,0,0,0-1.1,4.3,45,45,0,0,0,0,5.2H21.7V235h2.1l.3,2.7c.6-.8,1-1.7,1.6-1.9s2.8-1.1,4-.8,1.7,1.8,1.7,2.9C31.7,241.1,31.5,244.3,31.5,247.8Z" style="fill: #011f5d"/>
    <g>
      <path d="M0,49.5H39.9v121a52.5,52.5,0,0,0,.3,5.6c.7,6.3,4.3,10.2,10.6,10.9a33.1,33.1,0,0,0,13.6-1.4,2.9,2.9,0,0,0,2.3-3.3q-.2-53.2-.1-106.7V73h39.8V211.4H75.5a2.1,2.1,0,0,1-2.4-1.7c-.6-1.9-1.4-3.8-2.1-5.5-14.2,9.4-29.7,10.9-45.7,7.5C12,209.2,4.5,200.4,1.9,187.4A87.9,87.9,0,0,1,.1,169.7C-.1,130.3,0,90.9,0,51.5Z" style="fill: #011f5d"/>
      <path d="M125.2,69.6h-58V49.4h58V0h40.3V49.3h29V69.7H165.6v2.4c0,32.6-.1,65.2,0,97.8a59.9,59.9,0,0,0,1.7,11.9,7,7,0,0,0,6.1,5.8c5.9.9,11.8,1.5,17.6,2.3h2.3v21.4l-.9.2c-11.4-.1-22.9.1-34.3-.3-8.4-.4-16.1-2.9-22.5-8.7s-8.4-12-9.5-19.4a80.8,80.8,0,0,1-.9-12V69.6Z" style="fill: #e34100"/>
      <path d="M250.3,171.4H280c-.3,3.2-.4,6.4-.9,9.6-1.5,10.4-5.6,19.4-14.9,25.2a40.6,40.6,0,0,1-15.3,5.7c-8.8,1.4-17.5,1.8-26.2-.4-12.8-3.1-21.6-11.3-27.6-22.7s-8.1-21.6-9.6-33.1a207.9,207.9,0,0,1-.7-43.9c1.2-13.9,3.8-27.4,10.5-39.8,8.8-16.1,22.6-24,40.8-24.6a57,57,0,0,1,21.3,3c13.7,5,21.2,15.2,24,29.1,1.1,5.2,1.4,10.6,2.1,16.1H248.1c-.1-.7-.1-1.4-.2-2.2-.4-4.6-.6-9.2-1.2-13.8s-2.6-6.5-6.7-7.2a9.3,9.3,0,0,0-10.1,5c-2.1,3.6-2.8,7.7-3.1,11.8a526.1,526.1,0,0,0-.4,79.4,47.9,47.9,0,0,0,2.5,12.4c1.9,5.5,6.8,7.9,12.5,6.8,3.3-.6,5.7-2.4,6.7-5.5s1.4-6.3,2-9.5A5.9,5.9,0,0,0,250.3,171.4Z" style="fill: #011f5d"/>
      <path d="M125.9,229h2.6v18.7c-1.2.1-2.6.9-2.5-1.3a12.8,12.8,0,0,1-2.6,1.7,3.8,3.8,0,0,1-4.8-2.8,20.3,20.3,0,0,1-.3-6.5c.8-4.3,4-5.4,7.6-2.6Zm-5.3,12.1a15.9,15.9,0,0,0,.8,3.9,2.8,2.8,0,0,0,2,1.5c.6,0,1.9-.9,1.9-1.5a46.9,46.9,0,0,0,0-7.5c0-.5-1.2-1.4-1.8-1.4a2.8,2.8,0,0,0-2,1.3A22.2,22.2,0,0,0,120.6,241.1Z" style="fill: #011f5d"/>
      <path d="M99.4,246.2a3.9,3.9,0,0,1-4.4,1.9,4,4,0,0,1-3.1-3.7,20.8,20.8,0,0,1,.1-6.1c.6-3.8,4.8-5,7.5-1.9v-7.3H102v18.7C100.7,247.9,99.4,248.4,99.4,246.2Zm.2-4.8a14.3,14.3,0,0,0-.7-3.7c-.3-.7-1.2-1.6-1.9-1.6a2.9,2.9,0,0,0-2,1.4,9.3,9.3,0,0,0-.1,7.5c.3.7,1.4,1.6,2,1.5a3,3,0,0,0,2-1.7A12.1,12.1,0,0,0,99.6,241.4Z" style="fill: #011f5d"/>
      <path d="M202.5,233.8h-2.9l-.3-1.3a2.8,2.8,0,0,0-2.6-2.3,2.8,2.8,0,0,0-3.2,1.9,15,15,0,0,0,.3,12.1c1.1,2.2,3.6,2.8,6,1.7l1.8-.8c.6,1.4.2,2.2-1.3,2.7-5.2,1.6-9.6-.8-10.3-6.2a21.5,21.5,0,0,1,.4-8.4c1.1-4.1,5.7-5.8,9.5-3.9A4.5,4.5,0,0,1,202.5,233.8Z" style="fill: #011f5d"/>
      <path d="M215,247.8h-2.3l-.2-2.6c-.6.7-.9,1.5-1.5,1.7s-2.6,1.3-3.8,1a3.6,3.6,0,0,1-2.1-2.6c-.2-3.4-.1-6.9-.1-10.4h2.5v5.7a24.1,24.1,0,0,0,.1,3.8c.2.7.8,1.7,1.3,1.8a2.3,2.3,0,0,0,2.2-.9,14.1,14.1,0,0,0,1.4-4.4,37.2,37.2,0,0,0,.1-5.8H215Z" style="fill: #011f5d"/>
      <path d="M243.3,234.9h2v12.9h-2.1l-.3-2.6c-.8.8-1.3,1.8-2,2.1s-2.6.9-3.7.5a3.9,3.9,0,0,1-1.7-2.8c-.2-3.2-.1-6.6-.1-10h2.4c0,2.6,0,5.2.1,7.8s-.4,3.1,1.5,3.4,2.7-1.3,3-2.8S243,237.9,243.3,234.9Z" style="fill: #011f5d"/>
      <path d="M264.5,240.4c-.1-1.7.8-4-1.5-4.7s-2.1,1.3-2.6,2.6h-2.5a10.8,10.8,0,0,1,1-2.4c1.6-1.7,3.8-1.5,5.8-1.1s2.2,1.8,2.3,3.3v9.6c-1.2.2-2.4.8-2.6-1.2l-1.3,1a3.5,3.5,0,0,1-5-.8,3.3,3.3,0,0,1,1.6-4.9C261.2,241.2,262.8,240.9,264.5,240.4Zm.2,1.6-.5-.4a12,12,0,0,0-3.1,1.3,2.1,2.1,0,0,0-.2,3.3c1.2,1.1,2.4.3,2.9-.7A10,10,0,0,0,264.7,242Z" style="fill: #011f5d"/>
      <path d="M145.2,247.8h-2.8V230.7l-4.2-.2-.4-.5c.4-.4.8-1,1.3-1.1h9.3c.4,0,.9.7,1.3,1l-.3.7h-4.2Z" style="fill: #011f5d"/>
      <path d="M114.8,248.4l-3.1-1.5a12.6,12.6,0,0,1-1.3.9,3.5,3.5,0,0,1-4.7-1.3,3.3,3.3,0,0,1,1.5-4.5,35.1,35.1,0,0,1,4.9-1.5c.7-2.3.1-4.7-1.3-4.9s-2.2,1.2-2.5,2.7H106c.2-2.7,1.3-3.6,4.3-3.7s4.3.9,4.5,3.5S114.8,244.5,114.8,248.4Zm-2.2-6.2-.6-.6a11.5,11.5,0,0,0-3.2,1.4,2,2,0,0,0-.1,3.2c1.1,1,2.2.4,2.8-.6A13.5,13.5,0,0,0,112.6,242.2Z" style="fill: #011f5d"/>
      <path d="M169.2,247.4l-1.1.4a6.2,6.2,0,0,1-8.8-5,14.1,14.1,0,0,1,0-4.1,5.1,5.1,0,0,1,7.7-3.5c1.3.7,1.9,2.1,2,4.6h-7.2c-.5,4.9,2.1,7.5,6.8,7Zm-2.7-8.8c.1-1.8-.6-3-2.2-3s-2.5,1.3-2.5,3Z" style="fill: #011f5d"/>
      <path d="M63.3,239.8H56.2c-.8,4.7,1.9,7.4,7.2,7-.4.4-.7.9-.9.9a18.1,18.1,0,0,1-5.2,0c-2.6-.6-3.5-2.9-3.8-5.3s-.3-5.1,2-6.9a5.3,5.3,0,0,1,5.8-.3C63,236,63.4,237.7,63.3,239.8Zm-2.4-1.2c0-1.8-.7-2.9-2.4-3s-2.3,1.1-2.2,3Z" style="fill: #011f5d"/>
      <path d="M229.3,234.8h2.5c.3,0,.6.4.9.6s-.6.6-1,.6h-2.2c0,3.1-.1,6.2.1,9.3.1.6,1.6,1.2,2.7,2s0,.4-.2.6a3.7,3.7,0,0,1-5.2-3.3c-.1-1.4-.1-2.8-.1-4.2v-4l-1.9-1.1,1.8-1.1c.5-3,.5-3,2.6-4Z" style="fill: #011f5d"/>
      <path d="M52,235.1c-1.4,4-2.7,8-4,11.9-.4,1.2-2.3,1.4-2.7.3l-4.5-12.2c2-.8,2.8,0,3.3,1.6s1.6,4.8,2.6,7.8c1-3.1,1.9-5.5,2.6-8S50.3,234.4,52,235.1Z" style="fill: #011f5d"/>
      <path d="M178.7,236.9a7.6,7.6,0,0,0-2.6-.8,2.3,2.3,0,0,0-1.9.9,2.2,2.2,0,0,0,.7,1.9,21.6,21.6,0,0,0,2.9,2.1,3.8,3.8,0,0,1,1.6,4.7c-.5,1.8-2.1,2.4-3.8,2.5h-1.8c-1.6-.1-2.6-.7-2-2.5a20.2,20.2,0,0,0,3.3.9,2.5,2.5,0,0,0,2-1.2,2.7,2.7,0,0,0-.8-2.1c-.9-.8-2.1-1.4-3-2.1s-2-2.4-1.4-4.1a3.3,3.3,0,0,1,3.4-2.4h1.8C178.5,234.7,179.2,235.3,178.7,236.9Z" style="fill: #011f5d"/>
      <path d="M74.9,245.7a18.1,18.1,0,0,0,3.5.9,2.2,2.2,0,0,0,1.8-1.2,2.4,2.4,0,0,0-.7-2,14.6,14.6,0,0,0-2.4-1.7c-2-1.4-2.7-2.9-2.1-4.6s2-2.6,4.5-2.5,3-.1,2.3,2.3a6.5,6.5,0,0,0-2.2-.8,22.5,22.5,0,0,0-2.4.8,6.4,6.4,0,0,0,1,2.2c.8.7,1.8,1.2,2.7,1.9a4,4,0,0,1,1.7,4.7c-.6,1.8-2.2,2.4-3.9,2.5H76.9C75.3,248.1,74.3,247.5,74.9,245.7Z" style="fill: #011f5d"/>
      <path d="M270.1,247.9v-2.2a20.2,20.2,0,0,0,3.3.9,2.5,2.5,0,0,0,2-1.2,2.7,2.7,0,0,0-.8-2.1c-.9-.8-2-1.3-2.9-2a3.4,3.4,0,0,1-1.5-4.2,3.6,3.6,0,0,1,3.6-2.5c2.9-.1,3.3.2,3.2,2.3a5.8,5.8,0,0,0-2.1-.7,7.2,7.2,0,0,0-2.5.7,7.4,7.4,0,0,0,1,2.2,17.3,17.3,0,0,0,2.8,1.9,4.1,4.1,0,0,1,1.6,4.6c-.6,1.8-2.1,2.5-3.9,2.6Z" style="fill: #011f5d"/>
      <path d="M219.4,229h2.4v18.8h-2.4Z" style="fill: #011f5d"/>
      <path d="M66.7,247.8a8.1,8.1,0,0,1-.1-1.5V234.9h2.3l.3,2.7,3.4-3.1.5.4v2.3c-3.6,1.2-4,1.7-4,5.5v5.2Z" style="fill: #011f5d"/>
      <path d="M252.2,237.6l3.3-3.2.5.4v2.3c-3.4,1-3.9,1.7-3.9,5.4v5.3h-2.3a6,6,0,0,1-.2-1.2V235h2.3Z" style="fill: #011f5d"/>
      <path d="M157.7,234.4v2.7c-3.4,1.1-4,1.8-4,5.4v5.2h-2.3V235h2.2l.2,2.9a24.6,24.6,0,0,1,1.7-2.2A14.2,14.2,0,0,1,157.7,234.4Z" style="fill: #011f5d"/>
      <path d="M88,247.8H85.8V235H88Z" style="fill: #011f5d"/>
      <path d="M38.2,234.8v13H36V234.9Z" style="fill: #011f5d"/>
      <path d="M88.3,231.4H85.7V229h2.5Z" style="fill: #011f5d"/>
      <path d="M36,228.9h2.3v2.5H36Z" style="fill: #011f5d"/>
    </g>
  </g>
</svg>
